<svg xmlns="http://www.w3.org/2000/svg" width="512" height="512" fill="none" viewBox="0 0 432 432">
  <circle cx="216" cy="216" r="216" fill="#2e3943"/>
  <path fill="#f2faff" d="M398.073 216c0 97.433-81.517 176.419-182.073 176.419-100.556 0-182.073-78.986-182.073-176.419S115.444 39.581 216 39.581c100.556 0 182.073 78.986 182.073 176.419Z"/>
  <path fill="#7ebbed" fill-rule="evenodd" d="M216 359.34c81.702 0 147.934-64.175 147.934-143.34S297.702 72.66 216 72.66 68.065 136.835 68.065 216 134.298 359.34 216 359.34zm0 33.079c100.556 0 182.073-78.986 182.073-176.419S316.556 39.581 216 39.581C115.444 39.581 33.927 118.567 33.927 216S115.444 392.419 216 392.419z" clip-rule="evenodd"/>
  <path fill="#031019" transform="translate(129.04 281.92) scale(.173014 -.173014)" d="M465 775 578 738V12H465ZM393 31Q455 43 544.0 63.0Q633 83 723 105L738 0Q661 -22 581.0 -43.5Q501 -65 435 -83ZM852 851 946 759Q887 736 816.5 716.0Q746 696 672.5 681.5Q599 667 531 656Q527 676 516.0 704.0Q505 732 494 750Q559 762 624.5 777.5Q690 793 749.5 812.0Q809 831 852 851ZM528 478H972V365H528ZM688 728H803Q803 627 805.0 529.0Q807 431 812.0 345.5Q817 260 825.5 193.0Q834 126 847.0 85.5Q860 45 878 37Q888 33 893.5 70.0Q899 107 901 168Q912 157 927.5 143.0Q943 129 959.5 117.0Q976 105 988 96Q980 9 954.5 -35.0Q929 -79 894.5 -86.0Q860 -93 823 -69Q789 -52 765.5 -2.0Q742 48 728.0 123.5Q714 199 706.0 295.0Q698 391 694.5 500.5Q691 610 688 728ZM185 358H291V-89H185ZM181 851 287 811Q267 772 244.5 731.5Q222 691 201.0 654.0Q180 617 160 588L79 623Q97 653 116.0 693.0Q135 733 152.5 774.0Q170 815 181 851ZM302 730 401 683Q364 626 320.5 563.5Q277 501 233.5 444.0Q190 387 151 344L81 384Q109 418 139.5 461.0Q170 504 200.0 550.5Q230 597 256.5 643.0Q283 689 302 730ZM26 612 83 694Q109 672 136.5 645.0Q164 618 187.5 591.5Q211 565 223 542L163 448Q151 472 128.5 501.0Q106 530 79.0 559.0Q52 588 26 612ZM281 491 366 528Q387 496 406.5 458.0Q426 420 441.0 384.0Q456 348 463 319L373 277Q366 305 352.0 342.0Q338 379 320.0 418.0Q302 457 281 491ZM23 410Q93 413 191.0 420.5Q289 428 390 435L393 342Q300 332 207.5 322.0Q115 312 40 304ZM297 237 387 267Q405 226 422.0 177.0Q439 128 447 92L352 59Q345 95 329.5 145.0Q314 195 297 237ZM69 263 169 246Q161 174 145.5 104.0Q130 34 108 -14Q98 -7 81.5 1.0Q65 9 47.5 17.5Q30 26 17 30Q39 74 51.5 137.0Q64 200 69 263Z"/>
</svg>
